<?xml version="1.0" encoding="utf-8"?>
<!-- Generator: Adobe Illustrator 17.0.0, SVG Export Plug-In . SVG Version: 6.00 Build 0)  -->
<!DOCTYPE svg PUBLIC "-//W3C//DTD SVG 1.1//EN" "http://www.w3.org/Graphics/SVG/1.1/DTD/svg11.dtd">
<svg version="1.1" id="Layer_1" xmlns="http://www.w3.org/2000/svg" xmlns:xlink="http://www.w3.org/1999/xlink" x="0px" y="0px"
	 width="130px" height="12.77px" viewBox="0 0 130 12.77" enable-background="new 0 0 130 12.77" xml:space="preserve">
<g>
	<path d="M0.542,6.385c0-2.788,2.087-5.071,5.057-5.071c1.807,0,2.899,0.631,3.838,1.527L8.33,4.116
		C7.546,3.387,6.705,2.897,5.585,2.897c-1.877,0-3.236,1.541-3.236,3.488c0,1.919,1.359,3.487,3.236,3.487
		c1.205,0,1.975-0.49,2.815-1.274l1.107,1.121c-1.023,1.064-2.144,1.736-3.979,1.736C2.671,11.456,0.542,9.228,0.542,6.385z"/>
	<path d="M12.834,6.385c0-2.76,2.129-5.071,5.141-5.071s5.113,2.283,5.113,5.071c0,2.759-2.129,5.07-5.141,5.07
		C14.935,11.456,12.834,9.172,12.834,6.385z M21.281,6.385c0-1.905-1.387-3.488-3.334-3.488c-1.947,0-3.306,1.555-3.306,3.488
		c0,1.904,1.387,3.487,3.334,3.487C19.922,9.873,21.281,8.318,21.281,6.385z"/>
	<path d="M27.408,1.482h1.835l2.983,4.637l2.984-4.637h1.835v9.806h-1.723V4.255l-3.096,4.623h-0.056l-3.068-4.595v7.004h-1.695
		V1.482z"/>
	<path d="M41.898,1.482h1.723v9.806h-1.723V1.482z"/>
	<path d="M48.478,1.482h1.597l5.253,6.78v-6.78h1.695v9.806h-1.443l-5.407-6.976v6.976h-1.695V1.482z"/>
	<path d="M61.344,6.385c0-2.746,2.101-5.071,5.057-5.071c1.709,0,2.76,0.477,3.767,1.331l-1.091,1.303
		c-0.757-0.645-1.499-1.051-2.746-1.051c-1.807,0-3.18,1.583-3.18,3.488c0,2.017,1.331,3.502,3.334,3.502
		c0.925,0,1.765-0.295,2.367-0.743V7.309h-2.507V5.811h4.173v4.118c-0.966,0.826-2.353,1.526-4.089,1.526
		C63.361,11.456,61.344,9.27,61.344,6.385z"/>
	<path d="M80.775,9.859l1.036-1.232c0.938,0.812,1.877,1.274,3.096,1.274c1.064,0,1.737-0.49,1.737-1.261
		c0-0.7-0.393-1.078-2.214-1.513c-2.087-0.49-3.264-1.106-3.264-2.941c0-1.682,1.401-2.844,3.349-2.844
		c1.429,0,2.562,0.435,3.558,1.232l-0.925,1.303c-0.882-0.658-1.765-1.009-2.661-1.009c-1.009,0-1.597,0.519-1.597,1.191
		c0,0.756,0.448,1.092,2.325,1.54c2.073,0.505,3.151,1.247,3.151,2.9c0,1.835-1.442,2.927-3.502,2.927
		C83.366,11.427,81.952,10.91,80.775,9.859z"/>
	<path d="M92.199,6.385c0-2.76,2.13-5.071,5.141-5.071c3.012,0,5.113,2.283,5.113,5.071c0,2.759-2.129,5.07-5.141,5.07
		S92.199,9.172,92.199,6.385z M100.646,6.385c0-1.905-1.387-3.488-3.334-3.488s-3.306,1.555-3.306,3.488
		c0,1.904,1.387,3.487,3.333,3.487C99.287,9.873,100.646,8.318,100.646,6.385z"/>
	<path d="M106.339,6.385c0-2.76,2.13-5.071,5.141-5.071c3.012,0,5.113,2.283,5.113,5.071c0,2.759-2.129,5.07-5.141,5.07
		S106.339,9.172,106.339,6.385z M114.786,6.385c0-1.905-1.387-3.488-3.334-3.488s-3.306,1.555-3.306,3.488
		c0,1.904,1.387,3.487,3.333,3.487C113.427,9.873,114.786,8.318,114.786,6.385z"/>
	<path d="M120.913,1.482h1.597l5.253,6.78v-6.78h1.695v9.806h-1.443l-5.406-6.976v6.976h-1.695V1.482z"/>
</g>
</svg>
