<?xml version="1.0" encoding="utf-8"?>
<!-- Generator: Adobe Illustrator 17.0.0, SVG Export Plug-In . SVG Version: 6.00 Build 0)  -->
<!DOCTYPE svg PUBLIC "-//W3C//DTD SVG 1.1//EN" "http://www.w3.org/Graphics/SVG/1.1/DTD/svg11.dtd">
<svg version="1.1" id="Layer_1" xmlns="http://www.w3.org/2000/svg" xmlns:xlink="http://www.w3.org/1999/xlink" x="0px" y="0px"
	 width="130px" height="130px" viewBox="0 0 130 130" enable-background="new 0 0 130 130" xml:space="preserve">
<rect width="130" height="130"/>
<g>
	<path fill="#FFFFFF" d="M57.871,21.069H60.7v8.094l7.658-8.094h3.472l-6.691,6.922l6.991,9.175h-3.427l-5.496-7.244L60.7,32.498
		v4.668h-2.829V21.069z"/>
</g>
<g>
	<path fill="#FFFFFF" d="M99.881,55.954h2.621l7.082,16.211h-2.989l-1.633-3.886h-7.611l-1.655,3.886h-2.897L99.881,55.954z
		 M103.928,65.773l-2.782-6.438l-2.76,6.438H103.928z"/>
</g>
<g>
	<path fill="#FFFFFF" d="M63.574,95.539h-5.105v-2.621h13.061v2.621h-5.105v13.476h-2.851V95.539z"/>
</g>
<g>
	<path fill="#FFFFFF" d="M21.177,56.069h11.935v2.53h-9.106v4.185h8.071v2.529h-8.071v4.323h9.221v2.529h-12.05V56.069z"/>
</g>
</svg>
